/* XPM */
static const char *de_minus_up_xpm[]={
"32 32 345 2",
"      c None   ",
" 0    c #292E8A",
" 1    c #1B2588",
" 2    c #293691",
" 3    c #273692",
" 4    c #283994",
" 5    c #293D97",
" 6    c #2A4099",
" 7    c #2C439B",
" 8    c #2D479F",
" 9    c #2D49A1",
" a    c #2E4DA3",
" b    c #2F51A6",
" c    c #2F53A8",
" d    c #3055AB",
" e    c #3059AD",
" f    c #315CAF",
" g    c #325EB2",
" h    c #3362B4",
" i    c #3465B7",
" j    c #3669BB",
" k    c #2C63BB",
" l    c #0A2290",
" m    c #3F4998",
" n    c #042296",
" o    c #002EA5",
" p    c #083FB1",
" q    c #0138B1",
" r    c #0036B1",
" s    c #0037B4",
" t    c #0037B6",
" u    c #0039B7",
" v    c #003EBB",
" w    c #0042BC",
" x    c #0046BE",
" y    c #004AC0",
" z    c #004CC1",
" A    c #004FC4",
" B    c #0153C6",
" C    c #0356C8",
" D    c #0559CB",
" E    c #085CCB",
" F    c #0A61CE",
" G    c #0F67D1",
" H    c #045ECF",
" I    c #0C5CC9",
" J    c #3A3889",
" K    c #112A97",
" L    c #3776D6",
" M    c #3E97F3",
" N    c #369AFA",
" O    c #268EFA",
" P    c #1683F7",
" Q    c #0B7FF9",
" R    c #027BF9",
" S    c #007BF9",
" T    c #0280FA",
" U    c #0984F9",
" V    c #1189F9",
" W    c #198DF9",
" X    c #1F90F9",
" Y    c #2694FB",
" Z    c #2E97FA",
" &    c #359AFA",
"0     c #3C9EFB",
"00    c #41A0F9",
"01    c #4AA6FB",
"02    c #56AEFC",
"03    c #4DA6F9",
"04    c #368CEB",
"05    c #1C67CC",
"06    c #1C1E81",
"07    c #0E36A9",
"08    c #58AEFE",
"09    c #56BCFF",
"0a    c #3FA9FB",
"0b    c #31A4FF",
"0c    c #219AFD",
"0d    c #1393FF",
"0e    c #078EFE",
"0f    c #048EFE",
"0g    c #0C94FF",
"0h    c #1B9BFE",
"0i    c #2CA3FE",
"0j    c #3BAAFE",
"0k    c #49B0FE",
"0l    c #59B7FF",
"0m    c #68BDFE",
"0n    c #75C4FE",
"0o    c #84CDFF",
"0p    c #8DD0FD",
"0q    c #A0D9FF",
"0r    c #B8E3FD",
"0s    c #B0E2FF",
"0t    c #79C0FE",
"0u    c #186ED6",
"0v    c #2565BE",
"0w    c #262B89",
"0x    c #1846B3",
"0y    c #59B4FF",
"0z    c #4DB0FF",
"0A    c #3494F9",
"0B    c #2991FE",
"0C    c #1B89FD",
"0D    c #0D84FE",
"0E    c #0380FD",
"0F    c #0180FD",
"0G    c #0B88FE",
"0H    c #2091FD",
"0I    c #379DFD",
"0J    c #4DA7FD",
"0K    c #61B0FD",
"0L    c #77BBFE",
"0M    c #8BC5FD",
"0N    c #9ECEFD",
"0O    c #B3DAFF",
"0P    c #C1E0FE",
"0Q    c #DDEEFF",
"0R    c #FFFCFC",
"0S    c #EDFBFF",
"0T    c #9AD3FF",
"0U    c #2177DA",
"0V    c #2567C1",
"0W    c #23217F",
"0X    c #0D2E9F",
"0Y    c #4D9BF0",
"0Z    c #4CACFF",
"0&    c #389AF9",
"1     c #288FFB",
"10    c #1A86FA",
"11    c #0D83FC",
"12    c #037FFB",
"13    c #017FFB",
"14    c #0B86FC",
"15    c #208FFB",
"16    c #379BFB",
"17    c #4DA5FB",
"18    c #61AEFB",
"19    c #77BAFC",
"1a    c #8CC4FB",
"1b    c #9ECDFB",
"1c    c #B2D8FC",
"1d    c #C1DEFA",
"1e    c #E1EDFC",
"1f    c #FFFFFB",
"1g    c #E1F3FE",
"1h    c #7CBBF6",
"1i    c #1363CC",
"1j    c #2B61B7",
"1k    c #262D87",
"1l    c #18258B",
"1m    c #295BC0",
"1n    c #3D95EF",
"1o    c #40AAFF",
"1p    c #2A97FF",
"1q    c #1988FC",
"1r    c #0D85FF",
"1s    c #0381FE",
"1t    c #0181FE",
"1u    c #0A88FF",
"1v    c #1C90FE",
"1w    c #319AFE",
"1x    c #46A4FE",
"1y    c #59ADFE",
"1z    c #6CB7FF",
"1A    c #7EC0FE",
"1B    c #8DC7FE",
"1C    c #9FD0FF",
"1D    c #B7DAFD",
"1E    c #D2EBFF",
"1F    c #DCF6FF",
"1G    c #99CAF5",
"1H    c #3880DB",
"1I    c #1B5ABE",
"1J    c #091A89",
"1K    c #2467CF",
"1L    c #43A9FF",
"1M    c #2D9AFE",
"1N    c #1B8AFA",
"1O    c #0D83FE",
"1P    c #037FFD",
"1Q    c #0A87FE",
"1R    c #1C8FFD",
"1S    c #319AFD",
"1T    c #46A4FD",
"1U    c #58ADFD",
"1V    c #6CB7FE",
"1W    c #7FBFFD",
"1X    c #8DC6FD",
"1Y    c #9CCEFE",
"1Z    c #C0DFFB",
"1&    c #CDE9FE",
"2     c #A1D9FF",
"20    c #418DE3",
"21    c #094AB7",
"22    c #262680",
"23    c #143BAA",
"24    c #2A7DE5",
"25    c #2B9AFD",
"26    c #2096FF",
"27    c #0C82FD",
"28    c #027EFD",
"29    c #0A88FE",
"2a    c #1D90FD",
"2b    c #329AFD",
"2c    c #59ADFD",
"2d    c #6EB8FE",
"2e    c #7EBFFD",
"2f    c #92C8FD",
"2g    c #A8D4FD",
"2h    c #C6E8FF",
"2i    c #AFDDFE",
"2j    c #53A1F0",
"2k    c #0B5CCB",
"2l    c #2752AC",
"2m    c #23308E",
"2n    c #093EB3",
"2o    c #278DF7",
"2p    c #259CFF",
"2q    c #0C82FA",
"2r    c #027EFC",
"2s    c #1D8FFD",
"2t    c #44A4FD",
"2u    c #7BBEFD",
"2v    c #96CBFC",
"2w    c #B3D9FB",
"2x    c #B3E1FF",
"2y    c #75B9FB",
"2z    c #1463CF",
"2A    c #1851B4",
"2B    c #0E2792",
"2C    c #155FD3",
"2D    c #1A89F8",
"2E    c #108EFF",
"2F    c #0483FE",
"2G    c #007CFB",
"2H    c #0985FE",
"2I    c #44A3FD",
"2J    c #56ACFD",
"2K    c #6DB7FE",
"2L    c #80BFFB",
"2M    c #A0D3FE",
"2N    c #B1DFFF",
"2O    c #81C1F9",
"2P    c #3481E0",
"2Q    c #104AB4",
"2R    c #1031A2",
"2S    c #0A60D7",
"2T    c #1493FF",
"2U    c #0789FF",
"2V    c #007CFA",
"2W    c #0685FF",
"2X    c #1A8FFE",
"2Y    c #309BFE",
"2Z    c #45A4FE",
"2&    c #55ABFE",
"3     c #6DB8FF",
"30    c #8AC4FB",
"31    c #9ED6FF",
"32    c #90D2FF",
"33    c #438DE1",
"34    c #1451BA",
"35    c #0337AD",
"36    c #0C76EC",
"37    c #058BFE",
"38    c #0087FE",
"39    c #0282FD",
"3a    c #178BFB",
"3b    c #309AFE",
"3c    c #44A3FE",
"3d    c #57AAFC",
"3e    c #72B9FD",
"3f    c #91CFFE",
"3g    c #88CDFE",
"3h    c #55A2EF",
"3i    c #1859C0",
"3j    c #2548A2",
"3k    c #1D3090",
"3l    c #0345BC",
"3m    c #0079F0",
"3n    c #0190FF",
"3o    c #0184FF",
"3p    c #148AFC",
"3q    c #2D99FE",
"3r    c #5FAEFC",
"3s    c #77BEFF",
"3t    c #86D0FF",
"3u    c #5CACF3",
"3v    c #1E63CA",
"3w    c #1E45A7",
"3x    c #00198A",
"3y    c #0053CA",
"3z    c #0587FA",
"3A    c #018BFF",
"3B    c #108DFD",
"3C    c #2A92FB",
"3D    c #459FFC",
"3E    c #66B6FD",
"3F    c #76C5FF",
"3G    c #63B9FA",
"3H    c #2773D3",
"3I    c #042E9E",
"3J    c #2B2D81",
"3K    c #032D9F",
"3L    c #005ED6",
"3M    c #0089FD",
"3N    c #1094FF",
"3O    c #2B95FC",
"3P    c #4BA4FD",
"3Q    c #68BEFF",
"3R    c #60BBFD",
"3S    c #2C80DB",
"3T    c #083EAC",
"3U    c #2E3B94",
"3V    c #1F1E7F",
"3W    c #0021A0",
"3X    c #0477EB",
"3Y    c #1397FF",
"3Z    c #2F9FFB",
"3&    c #53AFFB",
"4     c #5CBBFF",
"40    c #3A98ED",
"41    c #0035AA",
"42    c #1A278C",
"43    c #081885",
"44    c #0047C1",
"45    c #0C7DED",
"46    c #2FABFF",
"47    c #4CB9FF",
"48    c #3795ED",
"49    c #0D56C4",
"4a    c #02158A",
"4b    c #004FC7",
"4c    c #28A8FF",
"4d    c #35AFFF",
"4e    c #0D58C8",
"4f    c #02198E",
"4g    c #333287",
"4h    c #012BA1",
"4i    c #0054D0",
"4j    c #0054CF",
"4k    c #002CA2",
"4l    c #383991",
"4m    c #00007C",
"4n    c #00007B",
"                                                                ",
"                                                                ",
"                                                                ",
"                                                                ",
"                                                                ",
"                                                                ",
"                                                                ",
"           0 1 2 3 4 5 6 7 8 9 a b c d e f g h i j k l          ",
"         m n o p q r s t u v w x y z A B C D E F G H I l l      ",
"       J K L M N O P Q R S T U V W X Y Z &0 000102030405 l      ",
"      060708090a0b0c0d0e0f0g0h0i0j0k0l0m0n0o0p0q0r0s0t0u0v      ",
"      0w0x0y0z0A0B0C0D0E0F0G0H0I0J0K0L0M0N0O0P0Q0R0S0T0U0V      ",
"      0W0X0Y0Z0&1 101112131415161718191a1b1c1d1e1f1g1h1i1j      ",
"      1k1l1m1n1o1p1q1r1s1t1u1v1w1x1y1z1A1B1C1D1E1F1G1H1I l      ",
"        1k1J1K1L1M1N1O1P0F1Q1R1S1T1U1V1W1X1Y1Z1&2 2021 l        ",
"        1k222324252627280F292a2b1T2c2d2e2f2g2h2i2j2k2l          ",
"          1k2m2n2o2p2q2r0F1Q2s1S2t1U2d2u2v2w2x2y2z2A            ",
"            1k2B2C2D2E2F2G2H1R1S2I2J2K2L2M2N2O2P2Q l            ",
"              1k2R2S2T2U2V2W2X2Y2Z2&3 3031323334 l              ",
"              1k1k35363738393a3b3c3d3e3f3g3h3i3j                ",
"                1k3k3l3m3n3o3p3q2Z3r3s3t3u3v3w                  ",
"                  1k3x3y3z3A3B3C3D3E3F3G3H3I l                  ",
"                    3J3K3L3M3N3O3P3Q3R3S3T3U                    ",
"                      3V3W3X3Y3Z3&4 404142                      ",
"                      1k43444546474849 l                        ",
"                        1k4a4b4c4d4e4f                          ",
"                          4g4h4i4j4k                            ",
"                            4l4m4n                              ",
"                                                                ",
"                                                                ",
"                                                                ",
"                                                                "};
