/* XPM */
static const char *ra_plus_up_xpm[]={
"32 32 345 2",
"      c None   ",
" 0    c #0A2290",
" 1    c #2565BE",
" 2    c #2567C1",
" 3    c #2B61B7",
" 4    c #1C67CC",
" 5    c #186ED6",
" 6    c #2177DA",
" 7    c #1363CC",
" 8    c #1B5ABE",
" 9    c #0C5CC9",
" a    c #368CEB",
" b    c #79C0FE",
" c    c #9AD3FF",
" d    c #7CBBF6",
" e    c #3880DB",
" f    c #094AB7",
" g    c #2752AC",
" h    c #2C63BB",
" i    c #045ECF",
" j    c #4DA6F9",
" k    c #B0E2FF",
" l    c #EDFBFF",
" m    c #E1F3FE",
" n    c #99CAF5",
" o    c #418DE3",
" p    c #0B5CCB",
" q    c #1851B4",
" r    c #3669BB",
" s    c #0F67D1",
" t    c #56AEFC",
" u    c #B8E3FD",
" v    c #FFFCFC",
" w    c #FFFFFB",
" x    c #DCF6FF",
" y    c #A1D9FF",
" z    c #53A1F0",
" A    c #1463CF",
" B    c #104AB4",
" C    c #3465B7",
" D    c #0A61CE",
" E    c #4AA6FB",
" F    c #A0D9FF",
" G    c #DDEEFF",
" H    c #E1EDFC",
" I    c #D2EBFF",
" J    c #CDE9FE",
" K    c #AFDDFE",
" L    c #75B9FB",
" M    c #3481E0",
" N    c #1451BA",
" O    c #2548A2",
" P    c #3362B4",
" Q    c #085CCB",
" R    c #41A0F9",
" S    c #8DD0FD",
" T    c #C1E0FE",
" U    c #C1DEFA",
" V    c #B7DAFD",
" W    c #C0DFFB",
" X    c #C6E8FF",
" Y    c #B3E1FF",
" Z    c #81C1F9",
" &    c #438DE1",
"0     c #1859C0",
"00    c #1E45A7",
"01    c #325EB2",
"02    c #0559CB",
"03    c #3C9EFB",
"04    c #84CDFF",
"05    c #B3DAFF",
"06    c #B2D8FC",
"07    c #9FD0FF",
"08    c #9CCEFE",
"09    c #A8D4FD",
"0a    c #B3D9FB",
"0b    c #B1DFFF",
"0c    c #90D2FF",
"0d    c #55A2EF",
"0e    c #1E63CA",
"0f    c #042E9E",
"0g    c #2E3B94",
"0h    c #315CAF",
"0i    c #0356C8",
"0j    c #359AFA",
"0k    c #75C4FE",
"0l    c #9ECEFD",
"0m    c #9ECDFB",
"0n    c #8DC7FE",
"0o    c #8DC6FD",
"0p    c #92C8FD",
"0q    c #96CBFC",
"0r    c #A0D3FE",
"0s    c #9ED6FF",
"0t    c #88CDFE",
"0u    c #5CACF3",
"0v    c #2773D3",
"0w    c #083EAC",
"0x    c #1A278C",
"0y    c #3059AD",
"0z    c #0153C6",
"0A    c #2E97FA",
"0B    c #68BDFE",
"0C    c #8BC5FD",
"0D    c #8CC4FB",
"0E    c #7EC0FE",
"0F    c #7FBFFD",
"0G    c #7EBFFD",
"0H    c #7BBEFD",
"0I    c #80BFFB",
"0J    c #8AC4FB",
"0K    c #91CFFE",
"0L    c #86D0FF",
"0M    c #63B9FA",
"0N    c #2C80DB",
"0O    c #0035AA",
"0P    c #3055AB",
"0Q    c #004FC4",
"0R    c #2694FB",
"0S    c #59B7FF",
"0T    c #77BBFE",
"0U    c #77BAFC",
"0V    c #6CB7FF",
"0W    c #6CB7FE",
"0X    c #6EB8FE",
"0Y    c #6DB7FE",
"0Z    c #6DB8FF",
"0&    c #72B9FD",
"1     c #77BEFF",
"10    c #76C5FF",
"11    c #60BBFD",
"12    c #3A98ED",
"13    c #0D56C4",
"14    c #02198E",
"15    c #2F53A8",
"16    c #004CC1",
"17    c #1F90F9",
"18    c #49B0FE",
"19    c #61B0FD",
"1a    c #61AEFB",
"1b    c #59ADFE",
"1c    c #58ADFD",
"1d    c #59ADFD",
"1e    c #56ACFD",
"1f    c #55ABFE",
"1g    c #57AAFC",
"1h    c #5FAEFC",
"1i    c #66B6FD",
"1j    c #68BEFF",
"1k    c #5CBBFF",
"1l    c #3795ED",
"1m    c #0D58C8",
"1n    c #002CA2",
"1o    c #2F51A6",
"1p    c #004AC0",
"1q    c #198DF9",
"1r    c #3BAAFE",
"1s    c #4DA7FD",
"1t    c #4DA5FB",
"1u    c #46A4FE",
"1v    c #46A4FD",
"1w    c #44A4FD",
"1x    c #44A3FD",
"1y    c #45A4FE",
"1z    c #44A3FE",
"1A    c #459FFC",
"1B    c #4BA4FD",
"1C    c #53AFFB",
"1D    c #4CB9FF",
"1E    c #35AFFF",
"1F    c #0054CF",
"1G    c #00007B",
"1H    c #2E4DA3",
"1I    c #0046BE",
"1J    c #1189F9",
"1K    c #2CA3FE",
"1L    c #379DFD",
"1M    c #379BFB",
"1N    c #319AFE",
"1O    c #319AFD",
"1P    c #329AFD",
"1Q    c #309BFE",
"1R    c #309AFE",
"1S    c #2D99FE",
"1T    c #2A92FB",
"1U    c #2B95FC",
"1V    c #2F9FFB",
"1W    c #2FABFF",
"1X    c #28A8FF",
"1Y    c #0054D0",
"1Z    c #00007C",
"1&    c #2D49A1",
"2     c #0042BC",
"20    c #0984F9",
"21    c #1B9BFE",
"22    c #2091FD",
"23    c #208FFB",
"24    c #1C90FE",
"25    c #1C8FFD",
"26    c #1D90FD",
"27    c #1D8FFD",
"28    c #1A8FFE",
"29    c #178BFB",
"2a    c #148AFC",
"2b    c #108DFD",
"2c    c #1094FF",
"2d    c #1397FF",
"2e    c #0C7DED",
"2f    c #004FC7",
"2g    c #012BA1",
"2h    c #383991",
"2i    c #2D479F",
"2j    c #003EBB",
"2k    c #0280FA",
"2l    c #0C94FF",
"2m    c #0B88FE",
"2n    c #0B86FC",
"2o    c #0A88FF",
"2p    c #0A87FE",
"2q    c #0A88FE",
"2r    c #0985FE",
"2s    c #0685FF",
"2t    c #0282FD",
"2u    c #0184FF",
"2v    c #018BFF",
"2w    c #0089FD",
"2x    c #0477EB",
"2y    c #0047C1",
"2z    c #02158A",
"2A    c #333287",
"2B    c #2C439B",
"2C    c #0039B7",
"2D    c #007BF9",
"2E    c #048EFE",
"2F    c #0180FD",
"2G    c #017FFB",
"2H    c #0181FE",
"2I    c #007CFB",
"2J    c #007CFA",
"2K    c #0087FE",
"2L    c #0190FF",
"2M    c #0587FA",
"2N    c #005ED6",
"2O    c #0021A0",
"2P    c #081885",
"2Q    c #262D87",
"2R    c #2A4099",
"2S    c #0037B6",
"2T    c #027BF9",
"2U    c #078EFE",
"2V    c #0380FD",
"2W    c #037FFB",
"2X    c #0381FE",
"2Y    c #037FFD",
"2Z    c #027EFD",
"2&    c #027EFC",
"3     c #0483FE",
"30    c #0789FF",
"31    c #058BFE",
"32    c #0079F0",
"33    c #0053CA",
"34    c #032D9F",
"35    c #1F1E7F",
"36    c #293D97",
"37    c #0037B4",
"38    c #0B7FF9",
"39    c #1393FF",
"3a    c #0D84FE",
"3b    c #0D83FC",
"3c    c #0D85FF",
"3d    c #0D83FE",
"3e    c #0C82FD",
"3f    c #0C82FA",
"3g    c #108EFF",
"3h    c #1493FF",
"3i    c #0C76EC",
"3j    c #0345BC",
"3k    c #00198A",
"3l    c #2B2D81",
"3m    c #283994",
"3n    c #0036B1",
"3o    c #1683F7",
"3p    c #219AFD",
"3q    c #1B89FD",
"3r    c #1A86FA",
"3s    c #1988FC",
"3t    c #1B8AFA",
"3u    c #2096FF",
"3v    c #259CFF",
"3w    c #1A89F8",
"3x    c #0A60D7",
"3y    c #0337AD",
"3z    c #1D3090",
"3A    c #273692",
"3B    c #0138B1",
"3C    c #268EFA",
"3D    c #31A4FF",
"3E    c #2991FE",
"3F    c #288FFB",
"3G    c #2A97FF",
"3H    c #2D9AFE",
"3I    c #2B9AFD",
"3J    c #278DF7",
"3K    c #155FD3",
"3L    c #1031A2",
"3M    c #293691",
"3N    c #083FB1",
"3O    c #369AFA",
"3P    c #3FA9FB",
"3Q    c #3494F9",
"3R    c #389AF9",
"3S    c #40AAFF",
"3T    c #43A9FF",
"3U    c #2A7DE5",
"3V    c #093EB3",
"3W    c #0E2792",
"3X    c #1B2588",
"3Y    c #002EA5",
"3Z    c #3E97F3",
"3&    c #56BCFF",
"4     c #4DB0FF",
"40    c #4CACFF",
"41    c #3D95EF",
"42    c #2467CF",
"43    c #143BAA",
"44    c #23308E",
"45    c #292E8A",
"46    c #042296",
"47    c #3776D6",
"48    c #58AEFE",
"49    c #59B4FF",
"4a    c #4D9BF0",
"4b    c #295BC0",
"4c    c #091A89",
"4d    c #262680",
"4e    c #3F4998",
"4f    c #112A97",
"4g    c #0E36A9",
"4h    c #1846B3",
"4i    c #0D2E9F",
"4j    c #18258B",
"4k    c #3A3889",
"4l    c #1C1E81",
"4m    c #262B89",
"4n    c #23217F",
"                                                                ",
"                                                                ",
"                                                                ",
"                 0 0 1 2 3 0                                    ",
"                 0 4 5 6 7 8 0                                  ",
"               0 9 a b c d e f g                                ",
"               h i j k l m n o p q 0                            ",
"               r s t u v w x y z A B 0                          ",
"               C D E F G H I J K L M N O                        ",
"               P Q R S T U V W X Y Z &0 00 0                    ",
"              0102030405060708090a0b0c0d0e0f0g                  ",
"              0h0i0j0k0l0m0n0o0p0q0r0s0t0u0v0w0x                ",
"              0y0z0A0B0C0D0E0F0G0H0I0J0K0L0M0N0O 0              ",
"              0P0Q0R0S0T0U0V0W0X0X0Y0Z0&1 1011121314            ",
"              15161718191a1b1c1d1c1e1f1g1h1i1j1k1l1m1n          ",
"              1o1p1q1r1s1t1u1v1v1w1x1y1z1y1A1B1C1D1E1F1G        ",
"              1H1I1J1K1L1M1N1O1P1O1O1Q1R1S1T1U1V1W1X1Y1Z        ",
"              1&2 20212223242526272528292a2b2c2d2e2f2g2h        ",
"              2i2j2k2l2m2n2o2p2q2p2r2s2t2u2v2w2x2y2z2A          ",
"              2B2C2D2E2F2G2H2F2F2F2I2J2K2L2M2N2O2P2Q            ",
"              2R2S2T2U2V2W2X2Y2Z2&3 3031323334352Q              ",
"              363738393a3b3c3d3e3f3g3h3i3j3k3l                  ",
"              3m3n3o3p3q3r3s3t3u3v3w3x3y3z2Q                    ",
"              3A3B3C3D3E3F3G3H3I3J3K3L2Q2Q                      ",
"              3M3N3O3P3Q3R3S3T3U3V3W2Q2Q                        ",
"              3X3Y3Z3&4 40414243442Q                            ",
"              45464748494a4b4c4d2Q                              ",
"                4e4f4g4h4i4j2Q2Q                                ",
"                  4k4l4m4n2Q                                    ",
"                                                                ",
"                                                                ",
"                                                                "};
